<svg width="32" height="32" viewBox="0 0 32 32" fill="none" xmlns="http://www.w3.org/2000/svg">
<circle cx="16" cy="16" r="16" fill="#4CBC9A"/>
<path d="M15.9998 13C16.1314 12.9992 16.2619 13.0245 16.3837 13.0742C16.5056 13.124 16.6164 13.1973 16.7098 13.29L20.7098 17.29C20.8981 17.4783 21.0039 17.7337 21.0039 18C21.0039 18.2663 20.8981 18.5217 20.7098 18.71C20.5215 18.8983 20.2661 19.0041 19.9998 19.0041C19.7335 19.0041 19.4781 18.8983 19.2898 18.71L15.9998 15.41L12.7098 18.7C12.5185 18.8638 12.2724 18.9494 12.0208 18.9397C11.7691 18.93 11.5303 18.8256 11.3523 18.6476C11.1742 18.4695 11.0698 18.2307 11.0601 17.979C11.0504 17.7274 11.136 17.4813 11.2998 17.29L15.2998 13.29C15.4861 13.1052 15.7375 13.0011 15.9998 13Z" fill="white"/>
</svg>
