<svg width="25" height="24" viewBox="0 0 25 24" fill="none" xmlns="http://www.w3.org/2000/svg">
<path d="M15.8808 12C15.8815 12.1316 15.8563 12.2621 15.8066 12.3839C15.7568 12.5058 15.6835 12.6166 15.5909 12.71L11.5924 16.71C11.4041 16.8983 11.1488 17.0041 10.8826 17.0041C10.6164 17.0041 10.3611 16.8983 10.1729 16.71C9.98465 16.5217 9.87891 16.2663 9.87891 16C9.87891 15.7337 9.98465 15.4783 10.1729 15.29L13.4717 12L10.1829 8.71002C10.0191 8.51871 9.93354 8.27264 9.94326 8.02096C9.95298 7.76929 10.0573 7.53055 10.2353 7.35245C10.4133 7.17436 10.652 7.07003 10.9036 7.06031C11.1551 7.05058 11.4011 7.13619 11.5924 7.30002L15.5909 11.3C15.7756 11.4863 15.8797 11.7377 15.8808 12Z" fill="#FEC64F"/>
</svg>
