<svg width="163" height="174" viewBox="0 0 163 174" fill="none" xmlns="http://www.w3.org/2000/svg">
<path d="M156 75C156 116.421 122.421 150 81 150C39.5786 150 6 116.421 6 75C6 33.5787 39.5786 7.62939e-06 81 7.62939e-06C122.421 7.62939e-06 156 33.5787 156 75ZM36 75C36 99.8528 56.1472 120 81 120C105.853 120 126 99.8528 126 75C126 50.1472 105.853 30 81 30C56.1472 30 36 50.1472 36 75Z" fill="#FAFAFA"/>
<path d="M81 150C68.6662 150 56.5227 146.958 45.6453 141.144C34.7678 135.33 25.4921 126.923 18.6398 116.668C11.7875 106.413 7.57009 94.6257 6.36116 82.3513C5.15224 70.0769 6.9891 57.6937 11.7091 46.2988C16.429 34.9038 23.8863 24.8487 33.4205 17.0242C42.9547 9.19973 54.2714 3.84732 66.3682 1.44111C78.4651 -0.965101 90.9686 -0.350842 102.771 3.22948C114.574 6.8098 125.312 13.2457 134.033 21.967L112.82 43.1802C107.587 37.9474 101.144 34.0859 94.0628 31.9377C86.9812 29.7895 79.479 29.4209 72.2209 30.8647C64.9628 32.3084 58.1728 35.5198 52.4523 40.2145C46.7318 44.9092 42.2574 50.9423 39.4254 57.7793C36.5935 64.6162 35.4914 72.0461 36.2167 79.4108C36.9421 86.7754 39.4725 93.8475 43.5839 100.001C47.6953 106.154 53.2607 111.198 59.7872 114.686C66.3136 118.175 73.5997 120 81 120V150Z" fill="#FEC64F"/>
<g filter="url(#filter0_d_1076_78)">
<circle cx="81.6197" cy="75.6198" r="45.8678" fill="white"/>
</g>
<defs>
<filter id="filter0_d_1076_78" x="0.751953" y="11.7521" width="161.736" height="161.736" filterUnits="userSpaceOnUse" color-interpolation-filters="sRGB">
<feFlood flood-opacity="0" result="BackgroundImageFix"/>
<feColorMatrix in="SourceAlpha" type="matrix" values="0 0 0 0 0 0 0 0 0 0 0 0 0 0 0 0 0 0 127 0" result="hardAlpha"/>
<feOffset dy="17"/>
<feGaussianBlur stdDeviation="17.5"/>
<feColorMatrix type="matrix" values="0 0 0 0 0 0 0 0 0 0 0 0 0 0 0 0 0 0 0.12 0"/>
<feBlend mode="normal" in2="BackgroundImageFix" result="effect1_dropShadow_1076_78"/>
<feBlend mode="normal" in="SourceGraphic" in2="effect1_dropShadow_1076_78" result="shape"/>
</filter>
</defs>
</svg>
