<svg width="32" height="32" viewBox="0 0 32 32" fill="none" xmlns="http://www.w3.org/2000/svg">
<circle cx="16" cy="16" r="16" fill="white"/>
<path d="M19.3337 14V12.6667C19.3337 10.8 17.867 9.33333 16.0003 9.33333C14.1337 9.33333 12.667 10.8 12.667 12.6667V14C11.5337 14 10.667 14.8667 10.667 16V20.6667C10.667 21.8 11.5337 22.6667 12.667 22.6667H19.3337C20.467 22.6667 21.3337 21.8 21.3337 20.6667V16C21.3337 14.8667 20.467 14 19.3337 14ZM14.0003 12.6667C14.0003 11.5333 14.867 10.6667 16.0003 10.6667C17.1337 10.6667 18.0003 11.5333 18.0003 12.6667V14H14.0003V12.6667ZM16.667 19.3333C16.667 19.7333 16.4003 20 16.0003 20C15.6003 20 15.3337 19.7333 15.3337 19.3333V17.3333C15.3337 16.9333 15.6003 16.6667 16.0003 16.6667C16.4003 16.6667 16.667 16.9333 16.667 17.3333V19.3333Z" fill="#374557"/>
</svg>
