<svg width="32" height="32" viewBox="0 0 32 32" fill="none" xmlns="http://www.w3.org/2000/svg">
<circle cx="16" cy="16" r="16" fill="white"/>
<path d="M12 21C11.817 21 11.635 20.95 11.474 20.851C11.3292 20.7611 11.2096 20.6358 11.1267 20.4869C11.0438 20.338 11.0002 20.1704 11 20V12C11 11.653 11.18 11.331 11.474 11.149C11.6191 11.0598 11.7846 11.0089 11.9548 11.0012C12.125 10.9935 12.2944 11.0292 12.447 11.105L20.447 15.105C20.6131 15.1882 20.7528 15.316 20.8504 15.4741C20.948 15.6321 20.9997 15.8142 20.9997 16C20.9997 16.1858 20.948 16.3679 20.8504 16.526C20.7528 16.684 20.6131 16.8118 20.447 16.895L12.447 20.895C12.307 20.965 12.152 21 12 21Z" fill="#4CBC9A"/>
</svg>
